<svg width="858" height="995" viewBox="0 0 858 995" fill="none" xmlns="http://www.w3.org/2000/svg">
<g filter="url(#filter0_d_3_54)">
<path d="M221.5 123.1C105.4 190.8 9.9 246.7 9.3 247.2C8.3 248 8 299 8 496.1V744H301.5H595V741V738H304.5H14V495.2C14 265.1 14.1 252.2 15.8 250.8C16.7 250 111 194.7 225.3 128.1L433.1 6.79999L639.8 127.8L846.5 248.8L846.8 494.3L847 739.9L823 724.7L799 709.5V492L798.9 274.5L616.9 168.1C516.9 109.6 434.4 61.9999 433.7 62.3C433.1 62.6 350.2 110.9 249.5 169.7L66.5 276.6L66.2 491.8L66 707H289.5C512.3 707 513 707 513 705C513 703 512.3 703 291.5 703H70V491.7C70 291.6 70.1 280.2 71.8 278.8C76.5 274.8 434.4 66.9 435.7 67.4C436.5 67.8 517.7 115.1 616.1 172.7L795 277.4V492.1V706.9L778.3 696.3C769 690.5 757.5 683.1 752.5 680L743.5 674.3L743.2 491.4L742.9 308.5L589.8 219C505.7 169.8 436.5 129.4 436.1 129.2C435.7 129.1 365.6 169.6 280.4 219.4L125.5 309.8L125.2 491.9L125 674H274C422.3 674 423 674 423 672C423 670 422.3 670 276 670H129V491.2L129.1 312.5L281.6 223.5C365.6 174.5 434.6 134.4 435 134.2C435.4 134 504 173.8 587.4 222.6L739 311.3V491.2C739 590.2 738.6 671 738.2 670.8C737.7 670.6 724.7 662.5 709.2 652.6L681 634.7V487.4V340L677.3 337.7C675.2 336.4 618.7 303.3 551.8 264.1L430 192.9L303.5 266.7L177 340.5V488.7V637H265.5C353.3 637 354 637 354 635C354 633 353.3 633 267.5 633H181L181.2 487.9L181.5 342.9L305.8 270.3L430 197.8L553.5 270.1L677 342.3V486.7C677 601.5 676.7 631 675.8 630.9C675.1 630.9 664.2 624.2 651.5 616.2L628.5 601.5L628 485.7L627.5 370L530 313C476.4 281.6 432.1 256.1 431.4 256.2C430.8 256.4 386.2 282.3 332.2 313.8L234 371.2V481.8C234 542.7 233.7 594.9 233.4 597.7L232.7 603H267.4H302V600V597H271H240L240.2 485.8L240.5 374.6L336.2 318.7L432 262.8L526.7 318.3L621.5 373.7L621.8 489.3L622 604.8L732.3 674.6C792.9 713 844.9 745.9 847.8 747.7L853 751.1V498.2V245.3L643.8 122.9C528.8 55.6 434.2 0.399963 433.6 0.199951C433 0.0999756 337.5 55.4 221.5 123.1Z" fill="#1B345A"/>
<path d="M574.8 792.3C564.9 795.1 557.8 802.4 553.9 813.7C549.7 826.1 549 848.7 552.6 862.4C555.8 874.7 562 882.9 571.5 887.2C578.8 890.5 593.4 890.4 600.5 887C613.7 880.6 619.6 868.3 620.7 845C622.2 810.3 611.1 792.2 587.6 791.3C582.9 791.1 577.5 791.6 574.8 792.3ZM598.5 799.7C610.4 805.9 615.7 820.4 614.8 844.3C613.7 869.8 605.4 882.2 588.3 883.7C566.5 885.7 554.8 868.1 556.3 836C557.4 814.4 563.3 803 575.7 798.4C581.1 796.4 593.4 797.1 598.5 799.7Z" fill="#1B345A"/>
<path d="M741.8 792.3C728.9 796 721.8 806.9 723.4 820.4C724.4 827.8 728.4 833.8 734.6 837.2C737.3 838.7 744.7 841.3 750.9 843C768.8 847.8 774.2 851.7 775.5 860.4C777 869.9 773.5 876.6 765.2 880.7C760 883.3 758.6 883.5 748.5 883.4C740.2 883.4 736 882.8 731.2 881.3L724.9 879.2L723.8 881.6C722.3 884.8 723.2 885.5 731 887.7C735.5 888.9 741.2 889.5 749.5 889.5C759.9 889.5 762.2 889.2 766.5 887.2C776.9 882.4 781.4 875.5 781.4 864C781.5 850.7 775.8 844.1 760 839.4C755.3 838 748.4 835.9 744.6 834.7C735.4 831.9 730.5 827.4 729.5 820.8C728.1 811.3 731.3 804.3 739 800C744.9 796.8 758 796.1 769 798.4C776.7 800 777.4 799.9 778.4 796.3C779 794.4 778.5 794.1 773.8 793C765.6 791.2 747.3 790.8 741.8 792.3Z" fill="#1B345A"/>
<path d="M4 840.6V889.2L23.3 888.8C45.2 888.2 49.1 887.3 56.4 880.9C65.2 873.1 68.5 861.9 68.4 839.5C68.3 819.1 65.5 808.6 57.9 801.1C50.7 793.9 43 792 20.5 792H4V840.6ZM43.4 799.7C52 802.1 57.1 807.4 60.2 817.2C62.2 823.4 62.5 826.7 62.5 839.5C62.5 864.4 58.4 874.6 46 880.4C42.2 882.2 39.2 882.5 25.8 882.8L10 883.2V840.6V798H23.7C33.5 798 39.1 798.5 43.4 799.7Z" fill="#1B345A"/>
<path d="M89.2 840.2L89.5 888.5H92H94.5L94.8 867.2L95 846H108.9H122.8L133.8 867.2C142.6 884.5 145.1 888.6 147 888.8C148.2 889 149.6 888.8 150.1 888.3C150.6 887.8 146.4 878.5 140.2 866.2L129.3 845.1L132.3 844C137.4 842.3 141.9 838.1 144.7 832.7C146.9 828.4 147.4 826.2 147.4 819.5C147.5 810.2 146 805.2 141.7 800.4C135.4 793.2 133 792.5 109.7 792.2L89 791.9L89.2 840.2ZM133.3 801C143.4 807.9 144.9 825.3 136.1 834.1C131.2 839.1 127 840 109.8 840H95V818.9V797.9L112.3 798.2C128.9 798.5 129.8 798.6 133.3 801Z" fill="#1B345A"/>
<path d="M168 840.5V889H194.9C223 889 223.3 889 222.2 884.7C221.8 883.1 219.8 883 197.9 883H174V863V843L194.3 842.8L214.5 842.5V840V837.5L194.3 837.2L174 837V817.5V798H197.5H221V795V792H194.5H168V840.5Z" fill="#1B345A"/>
<path d="M248.1 839.5C237.5 865.6 229.1 887.4 229.5 888C229.8 888.5 231.2 889 232.4 889C234.5 889 235.4 887.3 240.6 874.5L246.5 860H269.1H291.8L297.3 873.7C300.3 881.3 303.5 887.9 304.3 888.4C305.3 889 306.6 889 307.8 888.4C309.6 887.6 308.9 885.4 294.9 851C270.3 790.5 270.9 792 269.1 792C267.7 792 262.9 802.9 248.1 839.5ZM279.9 830.9C284.9 843.2 288.8 853.5 288.6 853.7C288.5 853.9 279.5 853.9 268.7 853.8L249.2 853.5L258.1 831.5C270 802 269.1 804.1 270 806.5C270.4 807.6 274.9 818.6 279.9 830.9Z" fill="#1B345A"/>
<path d="M323.2 793.3C322.3 794.4 322 806.9 322.2 841.6L322.5 888.5H325H327.5L327.8 846.1L328 803.6L345.3 832.1C361.5 858.5 362.9 860.5 365.5 860.5C368.1 860.5 369.5 858.6 385.4 832.4L402.5 804.3L403 846.4L403.5 888.5H406H408.5L408.8 840.8C409 794 409 793.1 407 792.5C405.9 792.2 404.4 792.3 403.5 792.7C402.7 793.2 393.9 806.8 384.1 822.8C374.2 838.9 365.8 852 365.3 851.9C364.9 851.7 356.4 838.3 346.4 822.1C328.2 792.2 326.2 789.7 323.2 793.3Z" fill="#1B345A"/>
<path d="M468.5 793.2C468.2 793.9 468.1 815.6 468.2 841.5L468.5 888.5H471H473.5L473.8 865.2L474 842H499H524L524.2 865.2L524.5 888.5H527H529.5V840.5V792.5H527H524.5L524.2 814.2L524 836H499H474L473.8 814.2C473.5 792.5 473.5 792.5 471.2 792.2C470 792 468.8 792.5 468.5 793.2Z" fill="#1B345A"/>
<path d="M642.4 793.3C642.1 794.1 642 811.6 642.2 832.1C642.6 873.6 642.5 873.1 649.6 880.9C655.4 887.4 660.8 889.4 672.5 889.5C680.9 889.5 683.3 889.1 687.8 887.1C693.7 884.4 698.3 879.7 701.4 873.1C703.4 868.7 703.5 867 703.5 830.5V792.5H701H698.5L698 830C697.4 871.4 697.6 870.5 690.7 877.8C683.4 885.5 665.9 886.1 656 879C654.5 877.9 652.1 874.9 650.8 872.2C648.5 867.6 648.5 866.8 648 830L647.5 792.5L645.2 792.2C644 792 642.8 792.5 642.4 793.3Z" fill="#1B345A"/>
<path d="M799 840.5V889H825.9C854 889 854.3 889 853.2 884.7C852.8 883.1 850.8 883 828.9 883H805V863V843L825.3 842.8L845.5 842.5V840V837.5L825.3 837.2L805 837V817.5V798H828.5H852V795V792H825.5H799V840.5Z" fill="#1B345A"/>
<path d="M564.6 937.2C559.1 938.7 552.5 945.4 551 951C547.5 963.9 554.5 975.5 567.3 978.2C587.6 982.5 601.4 958.5 587.4 943C581.9 936.9 573.7 934.8 564.6 937.2ZM579 943C589.5 948.4 589.8 965.8 579.4 971.7C571.9 976 561.8 973.4 557.9 966C556.8 964 556 960.5 556 957.5C556 944.8 567.9 937.3 579 943Z" fill="#1B345A"/>
<path d="M670.6 937.2C665.1 938.7 658.5 945.4 657 951C653.5 963.9 660.5 975.5 673.3 978.2C693.6 982.5 707.4 958.5 693.4 943C687.9 936.9 679.7 934.8 670.6 937.2ZM685 943C695.5 948.4 695.8 965.8 685.4 971.7C677.9 976 667.8 973.4 663.9 966C662.8 964 662 960.5 662 957.5C662 944.8 673.9 937.3 685 943Z" fill="#1B345A"/>
<path d="M718.9 937.6C705 941.8 700.5 960.8 710.6 972C717.8 980 732.6 981.2 740.1 974.4C741.9 972.8 741.9 972.5 740.4 970.9C738.8 969.1 738.6 969.1 735.7 971.2C731.1 974.5 723.4 974.8 719 971.8C713.5 968.1 711 963.5 711 957.5C711 951.5 713.5 946.9 719 943.2C723.4 940.2 731.1 940.5 735.7 943.8C738.6 945.9 738.8 945.9 740.4 944.1C741.9 942.5 741.9 942.2 740.1 940.6C735.3 936.3 726.9 935.1 718.9 937.6Z" fill="#1B345A"/>
<path d="M67.8 949.7C64.7 956.7 60.5 966 58.6 970.2L55.1 978H58C60.6 978 61.2 977.4 63.1 973L65.2 968H76.4H87.6L89.5 973C91.2 977.3 91.8 978 94.2 978C95.7 978 97 977.6 97 977.2C97 976.8 93 967.7 88.2 957C79.8 938.5 79.2 937.5 76.4 937.2C73.6 936.9 73.4 937.2 67.8 949.7ZM80.5 952C82.5 956.7 84.4 961.1 84.7 961.7C85.1 962.7 83.1 963 76.6 963C71.9 963 68 962.7 68 962.4C68 961.5 76.3 942.9 76.5 943.2C76.6 943.4 78.4 947.3 80.5 952Z" fill="#1B345A"/>
<path d="M104 957.5V978H107H110V960V942H120.5H131V939.5V937H117.5H104V957.5Z" fill="#1B345A"/>
<path d="M138 957.5V978H153H168V975.5V973H156H144V966.5V960H154H164V957.5V955H154H144V948.5V942H155.5H167V939.5V937H152.5H138V957.5Z" fill="#1B345A"/>
<path d="M177 957.5V978H180H183V969V960H195H207V969V978H210H213V957.5V937H210H207V946V955H195H183V946V937H180H177V957.5Z" fill="#1B345A"/>
<path d="M225 957.5V978H243H261V982.5C261 986.6 261.2 987 263.5 987C265.9 987 266 986.8 266 980V973H263H260V955V937H257H254V955V973H242.5H231V955V937H228H225V957.5Z" fill="#1B345A"/>
<path d="M273 957.5V978H276H279V957.5V937H276H273V957.5Z" fill="#1B345A"/>
<path d="M297.5 938.9C295.2 939.9 292.7 941.8 291.9 943.1C287.8 949.4 289 958.3 294.4 962.7L297.8 965.4L293.9 971.1C291.8 974.3 290 977.2 290 977.5C290 977.9 291.2 978 292.7 977.8C294.8 977.6 296.5 976 299.4 971.7L303.4 966H309.7H316V972V978H319H322V957.5V937H311.8C304 937 300.5 937.5 297.5 938.9ZM316 951.5V961H308.4C301.4 961 300.6 960.8 297.9 958.1C295.8 955.9 295 954.2 295 951.5C295 948.8 295.8 947.1 297.9 944.9C300.6 942.2 301.4 942 308.4 942H316V951.5Z" fill="#1B345A"/>
<path d="M350 957.5V978H353H356V969V960H368H380V969V978H383H386V957.5V937H383H380V946V955H368H356V946V937H353H350V957.5Z" fill="#1B345A"/>
<path d="M398 957.5V978H413H428V975.5V973H416H404V966.5V960H414H424V957.5V955H414H404V948.5V942H415.5H427V939.5V937H412.5H398V957.5Z" fill="#1B345A"/>
<path d="M437 957.4V978H440H443V972V966H450.3C462.6 965.9 468.8 961.7 469.7 952.7C470.2 947.3 467.7 942.2 463 939.5C460.2 937.9 457.3 937.4 448.3 937.1L437 936.8V957.4ZM460.9 944.6C463.5 946.7 464 947.9 464 951.5C464 955.1 463.5 956.3 460.9 958.4C458.2 960.7 457 961 450.4 961H443V951.5V942H450.4C457 942 458.2 942.3 460.9 944.6Z" fill="#1B345A"/>
<path d="M478.6 949.7C482.3 956.8 485.9 963.5 486.6 964.7C487.4 965.9 488 967.5 488 968.3C488 970.7 483.5 974 480.3 974C478.3 974 477 974.6 476.6 975.7C474.9 980.1 484.7 979.8 489.1 975.3C491.4 973 507.4 944.3 509.5 938.7C510.1 937.4 509.7 937 507.6 937C505.4 937 504.5 938.1 501.1 944.7C498.9 949 495.8 954.9 494.2 957.9L491.2 963.3L484.6 950.2C478.3 937.7 477.8 937 475 937H472L478.6 949.7Z" fill="#1B345A"/>
<path d="M519.1 946.9L526.1 956.9L518.6 967.4L511 978H514.3C517.3 978 518.2 977.2 523.4 970C526.5 965.6 529.3 962 529.5 962C529.7 962 532.4 965.6 535.5 970C540.7 977.3 541.4 978 544.5 978H547.9L540.5 967.4C536.4 961.5 533.3 956.2 533.7 955.6C534.1 955 537 950.8 540.2 946.4C543.4 941.9 546 938 546 937.6C546 937.3 544.7 937 543.1 937C540.6 937 539.4 938 535.4 943.7C532.8 947.5 530.4 950.9 530 951.3C529.6 951.8 526.9 948.8 524 944.6C519.2 937.7 518.4 937 515.4 937H512L519.1 946.9Z" fill="#1B345A"/>
<path d="M604 957.4V978H606.5H608.9L609.2 963.4L609.5 948.8L616.5 960.9C620.6 967.9 624.1 973 625 972.9C625.9 972.9 629.5 967.8 633.5 960.8L640.5 948.6L640.8 963.3L641.1 978H643.5H646V957.4V936.9L643.8 937.2C642.1 937.4 639.7 940.8 633.8 951C629.5 958.4 625.6 964.6 625.2 964.8C624.8 964.9 620.9 958.8 616.4 951.3C610.4 941 607.8 937.4 606.2 937.2L604 936.9V957.4Z" fill="#1B345A"/>
<path d="M745 939.5C745 941.9 745.2 942 752 942H759V960V978H762H765V960V942H772C778.8 942 779 941.9 779 939.5V937H762H745V939.5Z" fill="#1B345A"/>
<path d="M785 957.5V978H788H791V957.5V937H788H785V957.5Z" fill="#1B345A"/>
</g>
<defs>
<filter id="filter0_d_3_54" x="0" y="0.199829" width="857.512" height="994.8" filterUnits="userSpaceOnUse" color-interpolation-filters="sRGB">
<feFlood flood-opacity="0" result="BackgroundImageFix"/>
<feColorMatrix in="SourceAlpha" type="matrix" values="0 0 0 0 0 0 0 0 0 0 0 0 0 0 0 0 0 0 127 0" result="hardAlpha"/>
<feOffset dy="4"/>
<feGaussianBlur stdDeviation="2"/>
<feComposite in2="hardAlpha" operator="out"/>
<feColorMatrix type="matrix" values="0 0 0 0 0 0 0 0 0 0 0 0 0 0 0 0 0 0 0.25 0"/>
<feBlend mode="normal" in2="BackgroundImageFix" result="effect1_dropShadow_3_54"/>
<feBlend mode="normal" in="SourceGraphic" in2="effect1_dropShadow_3_54" result="shape"/>
</filter>
</defs>
</svg>
